<svg id="Layer_1" xmlns="http://www.w3.org/2000/svg" width="1000" height="1000" viewBox="204 -140 1000 1000"><style>.st0{fill:#5596E6;} .st1{fill:#264A60;} .st2{enable-background:new ;} .st3{fill:#FFFFFF;}</style><circle class="st0" cx="704" cy="360" r="500"/><path class="st1" d="M718.3 253.9c0 42.7-14.9 82.8-38.8 114.5-20.7 26.5-91.8 120.4-143.6 169.5v-95.8h-6.4c-104.3 0-188.4-84.1-188.4-188.2S425.2 65.7 529.4 65.7s188.9 84.1 188.9 188.2z"/><path class="st2 st0" d="M469 228.9c.7-33.8 22.7-58.3 57.4-58.3 44.4 0 58.8 27.6 58.8 45.6 0 45.1-38.9 38.9-43 67.6v9h-31.8v-10.6c3.3-40.9 38.5-37.1 37.7-62.6 0-14.4-7.6-21.2-20-21.2-17 0-24.4 13.9-24.4 30.7l-34.7-.2zm38 77.9h37.1v36.4H507v-36.4z"/><path class="st3" d="M583.6 372.3c0 56.3 18.1 108.7 49.8 150.1 27.1 35.6 122.2 158.5 186.9 223.2V620.2h10.3c137.1 0 248.4-111.2 248.4-247.7s-110.4-248-247.6-248-247.8 111.3-247.8 247.8z"/><circle class="st0" cx="717" cy="366.4" r="28.4"/><circle class="st0" cx="830.8" cy="366.4" r="28.4"/><circle class="st0" cx="944.6" cy="366.4" r="28.4"/></svg>